# xmcd CD database file
#
# Track frame offsets:
#	150
#	15242
#	37025
#	55355
#	71835
#	86872
#	108010
#	127554
#	144307
#	161780
#	182990
#	203127
#	213590
#	235940
#	251875
#	266852
#	289717
#	307887
#	325902
#
# Disc length: 4558 seconds
#
# Revision: 3
# Processed by: cddbd v1.5.2PL0 Copyright (c) Steve Scherf et al.
# Submitted via: CDex 1.51
#
DISCID=1811cc13
DTITLE=Various Artist - The Country-Rockin' Trust Presents...Hickory Wind
DYEAR=1998
DGENRE=Country
TTITLE0=Pickin' Up The Pieces/POCO
TTITLE1=Why Not Your Baby/Velvet Crush
TTITLE2=I Can Help/Billy Swan
TTITLE3=I Stand Alone/Al Kooper
TTITLE4=Boogie Back To Texas/Asleep At The Wheel
TTITLE5=I Don't Need No Doctor/New Riders Of The Purple Sage
TTITLE6=Run For The Roses/Dan Fogelberg
TTITLE7=Everybody/C.Love and Special Sauce
TTITLE8=Sold American/Kinky Friedman
TTITLE9=Across The Borderline/Willie Nelson
TTITLE10=Caballo Diablo/The Charlie Daniels Band
TTITLE11=Hello Mary Lou/Loggins and Messina
TTITLE12=A Song For You/IDHA
TTITLE13=Tequila/The Denim
TTITLE14=Echoes/Gene Clark With The Gosdin Brothers
TTITLE15=Time Drives The Truck/The Rockingbirds
TTITLE16=Sorry Charlie/Carl Perkins and NRBQ
TTITLE17=Carollina In The Pines/Michael Murphey
TTITLE18=Hickory Wind/The Byrds
EXTD=YEAR: 1998
EXTT0=
EXTT1=
EXTT2=
EXTT3=
EXTT4=
EXTT5=
EXTT6=
EXTT7=
EXTT8=
EXTT9=
EXTT10=
EXTT11=
EXTT12=
EXTT13=
EXTT14=
EXTT15=
EXTT16=
EXTT17=
EXTT18=
PLAYORDER=
